<?xml version="1.0" encoding="UTF-8"?>
<svg version="1.1" xmlns="http://www.w3.org/2000/svg" width="1024" height="1024">
<path d="M0 0 C337.92 0 675.84 0 1024 0 C1024 337.92 1024 675.84 1024 1024 C686.08 1024 348.16 1024 0 1024 C0 686.08 0 348.16 0 0 Z " fill="#0D151F" transform="translate(0,0)"/>
<path d="M0 0 C31.78042359 -0.06840646 63.56082627 -0.12151282 95.34130625 -0.15319599 C99.09146992 -0.1569482 102.84163343 -0.16083116 106.59179688 -0.16479492 C107.71170355 -0.16597532 107.71170355 -0.16597532 108.85423461 -0.16717956 C120.95042602 -0.18024106 133.04657474 -0.20389898 145.14274082 -0.23145839 C157.55029362 -0.25949193 169.95782405 -0.27617191 182.36540723 -0.28226548 C190.02438885 -0.2863862 197.68324985 -0.299411 205.34219435 -0.3237494 C211.21054394 -0.34145016 217.07883129 -0.34337081 222.9472084 -0.33932304 C225.35792154 -0.34015082 227.76863909 -0.3461504 230.1793251 -0.35761642 C233.46239219 -0.37247052 236.74493678 -0.36897929 240.02801514 -0.36076355 C240.98910084 -0.36950207 241.95018655 -0.3782406 242.94039607 -0.38724393 C249.33592375 -0.3437746 249.33592375 -0.3437746 252.5945015 1.34310436 C254.37519367 3.44230339 254.51083579 5.0319052 254.34655762 7.74169922 C253.54729565 12.94999315 252.05688913 17.99495764 250.640625 23.0625 C250.29497498 24.32658691 249.94932495 25.59067383 249.59320068 26.89306641 C248.67531883 30.24972187 247.74693912 33.60338278 246.81616211 36.95648193 C245.8844053 40.31958561 244.96195237 43.68523562 244.0390625 47.05078125 C242.67241554 52.03275779 241.29952644 57.01297222 239.92285156 61.9921875 C238.90764906 65.66408585 237.90692815 69.33850796 236.94494629 73.0246582 C236.76912899 73.69558502 236.59331169 74.36651184 236.4121666 75.05776978 C235.92241029 76.93251213 235.4369905 78.8083858 234.95184326 80.68432617 C232.101906 90.61186654 227.14300764 97.90201952 218.0390625 103.125 C212.49814704 105.64139829 207.20493919 106.12577666 201.18852234 106.14717102 C200.5161086 106.15084771 199.84369486 106.1545244 199.15090495 106.1583125 C196.90487605 106.16929774 194.65889348 106.17318432 192.4128418 106.17700195 C190.79948786 106.18327039 189.18613536 106.18991752 187.57278442 106.19691467 C182.281606 106.21790808 176.99042744 106.22831099 171.69921875 106.23828125 C169.87517596 106.24233023 168.05113332 106.2464472 166.22709084 106.25063133 C157.65848974 106.26967073 149.08989721 106.28390574 140.52127904 106.2922433 C130.63918962 106.30201865 120.75732401 106.32835116 110.87531346 106.36874419 C103.23013835 106.39891931 95.58502738 106.4137134 87.93979388 106.41702431 C83.3765419 106.41937271 78.81352938 106.42830612 74.25034142 106.45348549 C69.95665528 106.47679648 65.66336578 106.48098738 61.36963272 106.47072411 C59.79750688 106.47022941 58.2253613 106.4765303 56.65329552 106.49028015 C47.33941435 106.56715885 40.25458082 106.41346986 32.828125 100.17578125 C32.30734375 99.56089844 31.7865625 98.94601562 31.25 98.3125 C30.45335937 97.40951172 30.45335937 97.40951172 29.640625 96.48828125 C24.35434215 88.47075226 22.16095973 79.15146182 19.625 70 C19.2059778 68.50711718 18.78619619 67.01444735 18.36572266 65.52197266 C17.67999951 63.08738603 16.99490278 60.65263626 16.31222534 58.2171936 C14.31149732 51.08283983 12.27685958 43.958438 10.234375 36.8359375 C9.91467743 35.72059631 9.59497986 34.60525513 9.26559448 33.45611572 C7.98182672 28.97793521 6.69775531 24.49984208 5.41290283 20.02197266 C4.51097133 16.87699145 3.61075299 13.73152467 2.7109375 10.5859375 C2.43642761 9.630289 2.16191772 8.6746405 1.87908936 7.69003296 C1.63072327 6.82085236 1.38235718 5.95167175 1.12646484 5.05615234 C0.79864517 3.91211441 0.79864517 3.91211441 0.46420288 2.7449646 C0 1 0 1 0 0 Z " fill="#0075CC" transform="translate(409,374)"/>
<path d="M0 0 C0.91177505 -0.00960754 1.82355011 -0.01921509 2.76295471 -0.02911377 C3.75246628 -0.03336365 4.74197784 -0.03761353 5.76147461 -0.04199219 C7.29003334 -0.0505423 7.29003334 -0.0505423 8.84947205 -0.05926514 C11.01243041 -0.06872674 13.17540327 -0.07525371 15.33837891 -0.07910156 C18.62615744 -0.08875659 21.91329737 -0.11974823 25.20092773 -0.15136719 C27.30443966 -0.15790235 29.40795604 -0.1631508 31.51147461 -0.16699219 C32.48681656 -0.17933899 33.46215851 -0.19168579 34.46705627 -0.20440674 C42.19985907 -0.17955569 50.30357866 0.89836691 56.20288086 6.42285156 C62.79742461 14.61997997 65.34656913 25.17090973 68.04858398 35.12841797 C68.82985099 38.00157571 69.65374726 40.86206131 70.47631836 43.72363281 C70.79729492 44.85285156 71.11827148 45.98207031 71.44897461 47.14550781 C72.33982484 50.26388673 73.24773293 53.37705295 74.15991211 56.48925781 C74.44817871 57.47337646 74.73644531 58.45749512 75.03344727 59.47143555 C75.58782589 61.36194968 76.14332998 63.25213451 76.70043945 65.1418457 C78.78707034 72.26017805 80.79336865 79.39959803 82.78881836 86.54394531 C86.36218397 99.33131937 89.96523183 112.11008735 93.61778545 124.87507534 C94.55662942 128.15659575 95.4922368 131.43897069 96.42089844 134.72338867 C97.51777179 138.60232955 98.62748987 142.47749067 99.73803711 146.35253906 C100.06728683 147.5233754 100.39653656 148.69421173 100.73576355 149.90052795 C103.9906041 161.17793482 108.22252522 171.58647247 118.61303711 178.02832031 C125.8193362 181.73340398 131.42773006 183.28598034 139.54014587 183.28570557 C140.2262214 183.28711571 140.91229693 183.28852586 141.61916262 183.28997874 C143.91133105 183.29362013 146.20343716 183.29030025 148.49560547 183.28710938 C150.14175973 183.28850473 151.78791362 183.29040443 153.43406677 183.29277039 C156.97587815 183.29726198 160.51767796 183.29912335 164.05949211 183.29923248 C169.66099351 183.30037392 175.26242917 183.31321953 180.86390686 183.32879639 C181.80970751 183.33136924 182.75550816 183.33394209 183.72996944 183.33659291 C185.66373131 183.34185923 187.59749312 183.34714471 189.53125489 183.35244894 C202.56951235 183.38755148 215.60768742 183.41410828 228.64599609 183.41162109 C237.44496387 183.41003285 246.24370689 183.42605745 255.0426026 183.46232772 C259.69746702 183.48079043 264.35195613 183.49012761 269.00684929 183.47785187 C273.38438573 183.46641872 277.7612497 183.4781101 282.13869667 183.50748634 C283.74388793 183.51412826 285.34914072 183.51225773 286.95430756 183.50118828 C289.14884358 183.48731139 291.34111051 183.5042123 293.5355072 183.52862549 C295.37580458 183.53082533 295.37580458 183.53082533 297.25327969 183.53306961 C301.76539438 184.37950344 303.39722141 185.90022003 306.60131836 189.16113281 C307.72631836 192.59863281 307.72631836 192.59863281 307.60131836 196.16113281 C305.52787012 200.23123491 303.81027468 202.45768951 299.60131836 204.16113281 C297.24194336 204.57519531 297.24194336 204.57519531 294.85131836 204.78613281 C294.05209961 204.86089844 293.25288086 204.93566406 292.42944336 205.01269531 C291.82616211 205.06167969 291.22288086 205.11066406 290.60131836 205.16113281 C291.46756836 205.77988281 292.33381836 206.39863281 293.22631836 207.03613281 C298.4981176 211.39381959 303.14090135 218.62489312 303.83959961 225.50878906 C304.09657407 234.9086443 301.80231147 242.70816053 295.31225586 249.69238281 C289.08899012 255.03472966 281.70473973 256.66011982 273.68334961 256.56347656 C266.39016041 255.61138722 259.64378413 252.05373846 255.03881836 246.28613281 C250.3627876 238.98931785 248.18948247 231.87516907 249.60131836 223.16113281 C252.50539331 214.82993908 255.71415168 211.06441854 262.60131836 205.16113281 C226.63131836 205.16113281 190.66131836 205.16113281 153.60131836 205.16113281 C155.91131836 207.14113281 158.22131836 209.12113281 160.60131836 211.16113281 C165.95298466 218.10383504 167.43370023 224.55118284 166.60131836 233.16113281 C165.1101851 240.31391268 162.21244996 246.56416642 156.19506836 250.89160156 C148.63773114 255.5704824 142.52792136 257.16878388 133.60131836 256.16113281 C125.05740202 253.58917562 118.91719098 247.79923273 114.44116211 240.18847656 C111.7017803 233.98345823 111.3719228 226.90942328 113.48022461 220.48144531 C116.75046962 213.37972513 121.38600652 207.44512595 128.60131836 204.16113281 C127.64612305 203.80921875 126.69092773 203.45730469 125.70678711 203.09472656 C108.53657244 196.60963769 95.53570001 187.63381673 86.60131836 171.16113281 C81.81084713 160.458789 78.87306417 149.10981139 75.72631836 137.84863281 C75.18992001 135.94747177 74.65280427 134.046513 74.11499023 132.14575195 C73.06701854 128.4411732 72.02123707 124.7359896 70.97729492 121.03027344 C69.38256638 115.37739255 67.7538771 109.73487075 66.10131836 104.09863281 C65.84495605 103.22223145 65.58859375 102.34583008 65.32446289 101.44287109 C64.20477723 97.61934201 63.08191463 93.79674872 61.95874023 89.97424316 C60.43799704 84.79858009 58.91837618 79.62258954 57.40011597 74.44619751 C56.87015467 72.63991529 56.33982381 70.83374145 55.80911255 69.02767944 C52.33053007 57.18671711 48.89968469 45.33761481 45.74389648 33.40551758 C45.49961914 32.50502686 45.2553418 31.60453613 45.00366211 30.67675781 C44.80248779 29.9165332 44.60131348 29.15630859 44.39404297 28.37304688 C44.13244385 27.64311523 43.87084473 26.91318359 43.60131836 26.16113281 C43.27760254 25.25395508 42.95388672 24.34677734 42.62036133 23.41210938 C40.25184078 20.77150968 39.72087582 20.7925284 36.31689453 20.58105469 C34.50930041 20.57369974 32.70149254 20.59168426 30.89428711 20.62988281 C29.93613602 20.62661987 28.97798492 20.62335693 27.99079895 20.61999512 C23.88942705 20.60681474 19.78913757 20.6515242 15.68798828 20.69091797 C12.693915 20.71142695 9.70088838 20.70254863 6.70678711 20.69238281 C5.7847197 20.71200073 4.86265228 20.73161865 3.91264343 20.75183105 C-0.49204545 20.73410339 -3.46543316 20.5852203 -6.96777344 17.75292969 C-9.8280728 14.70332257 -10.3206771 13.98798094 -10.71118164 9.84863281 C-10.34992222 5.58577171 -9.3787611 4.14121227 -6.39868164 1.16113281 C-4.04846411 -0.01397595 -2.62030309 0.02227068 0 0 Z " fill="#0076CE" transform="translate(315.398681640625,314.8388671875)"/>
<path d="M0 0 C67.53926702 0 67.53926702 0 77.578125 9.4921875 C84.51243352 16.79677463 85.59840464 24.71585393 85.34375 34.5625 C84.44896457 43.51035433 80.77015813 49.25677597 74 55 C74.680625 55.495 75.36125 55.99 76.0625 56.5 C82.27570098 61.78783062 88.20549701 67.77913765 89.28271484 76.21362305 C89.4019192 78.62914591 89.40957094 81.01945511 89.375 83.4375 C89.38660156 84.24509766 89.39820313 85.05269531 89.41015625 85.88476562 C89.36862199 94.47543563 86.95361336 100.87483818 81.0859375 107.17578125 C71.22550744 115.79904125 59.32145839 116.29510418 46.875 116.1953125 C45.68390625 116.19329834 44.4928125 116.19128418 43.265625 116.18920898 C38.84371046 116.17879587 34.4218511 116.15087351 30 116.125 C20.1 116.08375 10.2 116.0425 0 116 C0 77.72 0 39.44 0 0 Z " fill="#0076CF" transform="translate(262,604)"/>
<path d="M0 0 C0.81411649 -0.00467997 1.62823299 -0.00935994 2.46701968 -0.01418173 C5.16850145 -0.02605519 7.86946871 -0.01670501 10.57095337 -0.00723267 C12.51813043 -0.01130158 14.46530518 -0.01664526 16.41247559 -0.02316284 C21.68062907 -0.03679868 26.94860563 -0.03155465 32.21676207 -0.02202559 C37.73266791 -0.01441615 43.24855888 -0.02147756 48.76446533 -0.02618408 C58.01965042 -0.03163513 67.27476358 -0.0244642 76.52993774 -0.01016235 C87.23705804 0.00619183 97.9440072 0.00085295 108.6511234 -0.01564157 C117.84619501 -0.02924047 127.04121503 -0.03118479 136.23629344 -0.02332556 C141.72760936 -0.01864398 147.21884471 -0.01803812 152.71015549 -0.02793503 C157.86647978 -0.03658019 163.02258234 -0.03062779 168.1788826 -0.01325226 C170.07399375 -0.00927552 171.96912346 -0.01044164 173.86422729 -0.01704025 C176.44440739 -0.02519837 179.02386994 -0.01500448 181.60400391 0 C182.35953407 -0.00669217 183.11506423 -0.01338433 183.89348924 -0.02027929 C188.93106486 0.03682572 188.93106486 0.03682572 191.38251686 1.75852013 C192.81971421 4.00375512 192.8545637 5.66687827 192.85855103 8.31845093 C192.87788696 9.17309937 192.8972229 10.0277478 192.91714478 10.90829468 C192.23929678 14.2868599 191.1531848 15.28964465 188.42105103 17.38095093 C185.71048174 17.77094478 183.40647638 17.91609833 180.69807434 17.87974548 C179.91555355 17.88513004 179.13303276 17.89051459 178.32679921 17.89606231 C175.70189302 17.90934807 173.0779195 17.89417916 170.45303345 17.87924194 C168.57219513 17.88306448 166.69135972 17.88868297 164.81053162 17.89596558 C160.75842643 17.90792806 156.70658029 17.90741753 152.65447044 17.89737129 C146.24619068 17.88182822 139.83817767 17.89547685 133.42991638 17.91340637 C120.98006299 17.94425072 108.53029073 17.94572692 96.08040619 17.9437561 C80.2440067 17.94236409 64.40766985 17.95271045 48.57131654 17.99233383 C42.20233433 18.00726845 35.83358769 18.0069962 29.46460187 17.994856 C25.49926917 17.99014298 21.53402648 17.99766835 17.56870842 18.00839996 C15.73171676 18.01080489 13.89471 18.00807505 12.05773544 17.9997921 C9.54657921 17.98914785 7.03611296 17.99693983 4.52497864 18.00914001 C3.80103493 18.00156396 3.07709123 17.9939879 2.33120984 17.98618227 C-5.47670321 18.06640678 -10.99951072 20.92550019 -16.57894897 26.38095093 C-21.70501853 33.64560364 -21.7858087 40.03525147 -21.82894897 48.63095093 C-21.84957397 49.64286499 -21.87019897 50.65477905 -21.89144897 51.69735718 C-21.92408213 57.98739805 -21.31814101 62.68785584 -18.57894897 68.38095093 C-13.64812538 73.07124655 -10.26499187 73.52801016 -3.68319702 73.51898193 C-2.44543408 73.52321385 -2.44543408 73.52321385 -1.18266582 73.52753127 C1.59800957 73.53590201 4.37864529 73.53721761 7.15933228 73.53866577 C9.14650587 73.54333206 11.13367839 73.54847531 13.12084961 73.55406189 C17.40755107 73.56535632 21.69424551 73.57378388 25.98095703 73.58018112 C32.75308849 73.59083836 39.52516958 73.61107582 46.29727173 73.63330078 C65.5569326 73.69530575 84.81659051 73.74929151 104.07632446 73.78231812 C114.70745094 73.80062872 125.33849317 73.82951774 135.96955776 73.87032282 C141.60010841 73.89144932 147.23055264 73.90685807 152.86114502 73.9091301 C158.15363669 73.91126821 163.44590661 73.92705131 168.73833084 73.95351982 C170.68544926 73.96074583 172.63259446 73.96279794 174.57972336 73.95941734 C177.22851504 73.95555166 179.87658824 73.96988192 182.52529907 73.98895264 C183.30408071 73.98342294 184.08286234 73.97789325 184.88524342 73.97219598 C187.02583313 73.99898338 187.02583313 73.99898338 190.42105103 74.38095093 C192.67519884 77.76217266 192.6664955 78.98742373 192.60855103 82.94345093 C192.59888306 84.39944702 192.59888306 84.39944702 192.58901978 85.88485718 C192.42105103 88.38095093 192.42105103 88.38095093 191.42105103 90.38095093 C164.21323646 90.52118448 137.00547614 90.62695331 109.79737282 90.69182396 C97.16383398 90.7227467 84.53051985 90.76489744 71.89712524 90.83358765 C60.88436747 90.89343754 49.87177245 90.93211157 38.85885656 90.9454819 C33.02886451 90.95329607 27.19933805 90.97162898 21.36949539 91.01533127 C15.87830109 91.05616011 10.38776265 91.06859898 4.89643097 91.05959702 C2.88489845 91.06124304 0.87334322 91.07311637 -1.13805771 91.09618378 C-13.12849575 91.22690944 -21.5010991 90.98998224 -30.66000938 82.4377346 C-38.98367923 74.0544697 -40.14697165 64.51224153 -40.12582397 53.24227905 C-40.11744507 52.45280884 -40.10906616 51.66333862 -40.10043335 50.84994507 C-40.07901678 48.45104535 -40.10029691 46.05514953 -40.12582397 43.65634155 C-40.14998603 31.13188172 -38.22395265 21.39702665 -29.84848022 11.60751343 C-21.74362714 3.6561085 -11.20743633 -0.10106102 0 0 Z " fill="#0078D0" transform="translate(447.5789489746094,266.6190490722656)"/>
<path d="M0 0 C10.64958024 6.92786611 18.43895934 16.52744032 21.64453125 28.9296875 C23.82450057 40.87759628 22.23175482 54.25259774 15.33203125 64.4921875 C7.36454223 74.75213312 -1.732986 81.92251459 -14.66796875 84.4921875 C-29.21000047 86.07846718 -42.41966103 83.99960174 -54.16015625 74.7578125 C-62.38650123 67.32591205 -68.8544922 57.79274907 -69.8449707 46.46850586 C-70.29664038 30.72124958 -68.4351027 19.74575764 -57.66796875 7.4921875 C-42.11651889 -7.13648872 -18.78919008 -10.61878093 0 0 Z " fill="#0076CE" transform="translate(431.66796875,637.5078125)"/>
<path d="M0 0 C1.43665555 1.03531228 2.85462061 2.09719405 4.25 3.1875 C4.86617187 3.66574219 5.48234375 4.14398437 6.1171875 4.63671875 C12.27832909 10.07221477 18.71904409 20.90684082 19.42700195 29.28125 C19.97029018 50.61451192 19.97029018 50.61451192 15.25 59.1875 C14.82589844 59.96996094 14.40179687 60.75242187 13.96484375 61.55859375 C7.66078453 71.97170551 -1.63030832 78.41278522 -13.0078125 82.30078125 C-25.99508821 85.37814199 -40.0356853 83.7948171 -51.5 77 C-61.54623624 70.14054993 -69.05241291 59.60973416 -71.50390625 47.50390625 C-73.15370742 31.97482536 -70.60677585 20.04888532 -60.8515625 7.8046875 C-45.25628814 -9.2979368 -19.3719575 -12.06300525 0 0 Z " fill="#0076CE" transform="translate(535.75,638.8125)"/>
<path d="M0 0 C6.93 0 13.86 0 21 0 C21 21.78 21 43.56 21 66 C29.74583373 57.25416627 38.18906029 48.27376334 45.90234375 38.59765625 C46.59457031 37.74042969 47.28679688 36.88320313 48 36 C48.36834961 35.38745361 48.73669922 34.77490723 49.11621094 34.14379883 C50.59888189 31.94231609 51.8113052 30.52022644 54 29 C58.48776712 28.14166336 62.82719973 28.33831266 67.375 28.5625 C68.58800781 28.59408203 69.80101562 28.62566406 71.05078125 28.65820312 C74.03634184 28.74048235 77.0169161 28.85539067 80 29 C76.15398408 34.32511982 72.0909662 39.2455141 67.5625 44 C66.41192581 45.2231738 65.26217836 46.44712583 64.11328125 47.671875 C63.5713916 48.24873047 63.02950195 48.82558594 62.47119141 49.41992188 C60.15265818 51.9100558 57.92190779 54.47146705 55.69921875 57.046875 C52.18934124 61.08121697 48.5852279 65.03267298 45 69 C46.56232021 72.67956291 48.83584082 75.16515793 51.5625 78.0625 C55.83840083 82.66116888 59.83704303 87.42390545 63.78125 92.3125 C65.97275268 94.9669962 68.24247683 97.52000885 70.5625 100.0625 C83 113.72623239 83 113.72623239 83 116 C58.05263365 118.24930907 58.05263365 118.24930907 51.8515625 113.4921875 C49.21010658 110.85398611 47.10806432 107.89165952 45.12060547 104.73974609 C43.44626056 102.1403165 41.44081789 99.85051337 39.4375 97.5 C38.73367188 96.6234375 38.02984375 95.746875 37.3046875 94.84375 C34.14661057 90.94700423 30.89161026 87.13525966 27.62866211 83.32617188 C25.60035546 80.9466066 23.73724264 78.60586396 22 76 C21.67 89.2 21.34 102.4 21 116 C14.07 116 7.14 116 0 116 C0 77.72 0 39.44 0 0 Z " fill="#0077CF" transform="translate(570,604)"/>
<path d="M0 0 C7.59 0 15.18 0 23 0 C24.09699219 3.02542969 25.19398438 6.05085937 26.32421875 9.16796875 C27.40294118 12.1403263 28.48209049 15.11252855 29.5612793 18.0847168 C30.30358641 20.12980268 31.04545875 22.17504643 31.78686523 24.22045898 C32.8606356 27.18255916 33.93579438 30.14415033 35.01171875 33.10546875 C35.35886932 34.06186249 35.7060199 35.01825623 36.06369019 36.00363159 C38.34457314 42.26519756 40.70852833 48.48344298 43.19848633 54.6652832 C44 57 44 57 44 60 C44.66 60 45.32 60 46 60 C46.11174561 59.16750732 46.22349121 58.33501465 46.33862305 57.47729492 C47.07178717 53.62256749 48.25431282 50.04216831 49.58203125 46.36328125 C49.83748215 45.64319382 50.09293304 44.92310638 50.35612488 44.18119812 C51.17024513 41.8899371 51.99128392 39.60122606 52.8125 37.3125 C53.35266383 35.79508209 53.89238129 34.27750521 54.43164062 32.75976562 C56.93667007 25.7194173 59.46210973 18.68707161 62.04956055 11.67651367 C63.42452517 7.80450309 64.70065425 3.89803724 66 0 C73.59 0 81.18 0 89 0 C86.75129271 10.1191828 86.75129271 10.1191828 84.734375 15.12890625 C84.26708984 16.30195312 83.79980469 17.475 83.31835938 18.68359375 C82.79567751 19.97660478 82.27288706 21.26957193 81.75 22.5625 C80.58581116 25.46896246 79.4260602 28.37719346 78.265625 31.28515625 C77.94440674 32.08801056 77.62318848 32.89086487 77.29223633 33.7180481 C74.54200099 40.604326 71.84411364 47.51045307 69.15622711 54.421278 C67.68050443 58.21394724 66.20116202 62.00520689 64.72225571 65.79663563 C63.49165084 68.95247253 62.26322085 72.10912303 61.03942871 75.26760864 C59.64684508 78.85785036 58.24611135 82.4448182 56.84375 86.03125 C56.42953796 87.10511459 56.01532593 88.17897919 55.58856201 89.28538513 C50.78096769 101.53002684 44.88695634 114.13708214 32.4375 120.125 C24.96158445 122.88132074 17.86796675 122.3391365 10 122 C10 115.73 10 109.46 10 103 C11.65 102.773125 13.3 102.54625 15 102.3125 C21.84628835 101.05087728 26.95464962 98.94019117 31 93.125 C33.6499451 84.84392157 30.68501608 78.78524812 27.5 71.0625 C26.76125661 69.22756876 26.02253219 67.39262981 25.28433228 65.55747986 C24.46546968 63.52751643 23.64094616 61.49992224 22.81542969 59.47265625 C19.73481169 51.89768586 16.71466383 44.29833153 13.68139648 36.70431519 C12.64713663 34.11785885 11.61018623 31.532499 10.57226562 28.94750977 C7.69774682 21.78606893 4.83080075 14.62166683 2.0234375 7.43359375 C1.62817871 6.42224365 1.23291992 5.41089355 0.82568359 4.36889648 C0 2 0 2 0 0 Z " fill="#0076CE" transform="translate(692,633)"/>
<path d="M0 0 C7.26 0 14.52 0 22 0 C22 38.61 22 77.22 22 117 C14.74 117 7.48 117 0 117 C0 78.39 0 39.78 0 0 Z " fill="#0075CB" transform="translate(661,604)"/>
<path d="M0 0 C60.39 0 120.78 0 183 0 C183 4.29 183 8.58 183 13 C159.32202101 13.11669092 135.64408498 13.20491833 111.96587658 13.25906086 C100.97218921 13.28486599 89.97868028 13.32006063 78.98510742 13.37719727 C69.40549155 13.42696153 59.82600486 13.4592742 50.24626333 13.47044247 C45.17162896 13.47697307 40.09736426 13.49236962 35.02284813 13.52865028 C30.24988916 13.5624996 25.47745335 13.57307544 20.70438576 13.56553841 C18.94954209 13.56691792 17.19468155 13.57691628 15.43994141 13.59602737 C13.04937367 13.62079384 10.66079823 13.61496714 8.27018738 13.60127258 C7.57077331 13.61583679 6.87135925 13.630401 6.15075082 13.64540654 C4.21150494 13.61523914 4.21150494 13.61523914 1 13 C-0.97001171 10.62648296 -0.97001171 10.62648296 -2 8 C-1.72323446 5.09396188 -0.92416454 2.77249363 0 0 Z " fill="#007AD2" transform="translate(443,303)"/>
<path d="M0 0 C6.44343066 3.73971662 12.25241625 10.01433789 14.4921875 17.15625 C15.58089023 26.92925594 13.85033814 33.68370822 8.8046875 41.90625 C3.464587 47.10202346 -2.8028107 49.77297395 -10.1328125 50.53125 C-16.4840931 50.41297662 -21.89069414 47.45480526 -26.59375 43.32421875 C-31.91220104 37.6354958 -34.55594096 32.06868086 -34.9453125 24.28125 C-34.63573886 15.88406494 -31.48393856 9.41521518 -25.484375 3.62890625 C-18.12154238 -1.85684058 -8.74703699 -2.94292833 0 0 Z " fill="#0E151F" transform="translate(417.5078125,652.84375)"/>
<path d="M0 0 C6.92029911 3.73927882 11.30458788 9.49787977 13.69921875 16.9921875 C15.34210983 26.02808843 13.78845323 33.07763672 8.96875 40.76171875 C5.19421912 45.87972672 -0.08397877 48.06184709 -5.93359375 50.01171875 C-13.82072363 50.69164374 -19.9431185 48.49392536 -26.24609375 43.69921875 C-32.04281329 37.90249921 -34.05529047 31.97293885 -34.30859375 23.88671875 C-34.22648187 17.22819198 -32.99546134 12.34350356 -28.93359375 7.01171875 C-20.70960399 -0.86660419 -11.21085795 -3.7767604 0 0 Z " fill="#0E151F" transform="translate(519.93359375,652.98828125)"/>
<path d="M0 0 C4.55380573 -0.06923015 9.10575343 -0.12885053 13.65966797 -0.16479492 C15.20562968 -0.1797933 16.75154948 -0.20019887 18.29736328 -0.22631836 C36.76362291 -0.53031424 36.76362291 -0.53031424 44 5.5 C47.18375443 9.79161493 46.70446262 14.92941738 46 20 C44.30382357 24.28507731 42.12021488 26.03353381 38 28 C33.02710954 29.65977653 28.76845413 30.23874236 23.53515625 30.1953125 C22.51789711 30.19106766 22.51789711 30.19106766 21.48008728 30.18673706 C19.34070234 30.17565416 17.2017557 30.1505736 15.0625 30.125 C13.60091756 30.11495476 12.13932847 30.10583163 10.67773438 30.09765625 C7.11819004 30.07746598 3.55957829 30.03829791 0 30 C0 20.1 0 10.2 0 0 Z " fill="#0E1722" transform="translate(283,671)"/>
<path d="M0 0 C4.455 -0.061875 8.91 -0.12375 13.5 -0.1875 C14.88896484 -0.21481201 16.27792969 -0.24212402 17.70898438 -0.27026367 C25.60113303 -0.32320437 32.16623495 -0.24395504 38.4375 5.0625 C41.87989327 9.33106766 41.5461925 13.71222334 41 19 C40.09221573 22.12231533 39.1539718 23.36138455 37 26 C29.5882425 29.86778607 22.19624579 29.34282912 14 29.1875 C9.38 29.125625 4.76 29.06375 0 29 C0 19.43 0 9.86 0 0 Z " fill="#0E151F" transform="translate(283,623)"/>
<path d="M0 0 C1.8551441 1.7623869 3.38724049 3.51215677 4.9375 5.5625 C7.08017654 8.0947541 7.94329037 8.89041358 11 10 C13.74635045 10.19106881 16.3904883 10.27242757 19.13626099 10.25828552 C19.96314513 10.26196123 20.79002928 10.26563693 21.64197052 10.26942402 C24.41648686 10.27941519 27.19080323 10.27525105 29.96533203 10.27124023 C31.95280165 10.27562651 33.94026943 10.2809283 35.92773438 10.28707886 C40.2089564 10.29858548 44.49012888 10.30403874 48.77136612 10.30496025 C55.535276 10.306898 62.29908304 10.32493362 69.06295776 10.34571838 C85.86070945 10.39494243 102.65848904 10.42582803 119.45629883 10.44702148 C132.5141974 10.46351995 145.57200793 10.4862578 158.62984741 10.53004223 C165.35979158 10.55188694 172.08956877 10.55987017 178.81954598 10.55764949 C182.99770265 10.55931032 187.17574924 10.57332179 191.35386658 10.59086227 C193.2977659 10.59648513 195.24168782 10.59692573 197.18558884 10.59192467 C199.82988259 10.58583257 202.47347395 10.59792457 205.1177063 10.61473083 C205.89512369 10.60851902 206.67254109 10.6023072 207.47351658 10.59590715 C209.61036873 10.62082577 209.61036873 10.62082577 213 11 C215.13586678 14.20380017 215.23132175 15.01939967 215.125 18.6875 C215.10695313 19.49574219 215.08890625 20.30398438 215.0703125 21.13671875 C215.04710937 21.75160156 215.02390625 22.36648438 215 23 C214.67 23 214.34 23 214 23 C213.01 18.545 213.01 18.545 212 14 C210.48040302 13.99641747 210.48040302 13.99641747 208.93010712 13.99276257 C184.27550787 13.93395768 159.62100627 13.85806866 134.96651459 13.76428509 C123.04376611 13.71932714 111.12104751 13.6799124 99.19824219 13.65356445 C88.80584932 13.63058445 78.41355098 13.59718625 68.02123308 13.55129844 C62.51901886 13.5273664 57.01689826 13.50863744 51.51463318 13.50238609 C46.33376179 13.49633524 41.15312995 13.47633504 35.97234726 13.44572449 C34.07290689 13.43694434 32.17343521 13.43322163 30.27397537 13.43499184 C27.67533534 13.43664871 25.07742198 13.41991027 22.47888184 13.39872742 C21.7317768 13.40357499 20.98467177 13.40842257 20.2149272 13.41341704 C14.59291803 13.33807451 8.78467681 12.45228568 4.43180227 8.61898917 C2.10446336 5.97349746 0.40863635 3.54151503 0 0 Z " fill="#0084E1" transform="translate(425,330)"/>
<path d="M0 0 C2.9375 2.0625 2.9375 2.0625 5 5 C5.44438519 7.94697546 5.13039027 10.2457496 4 13 C0.72001163 16.2018934 -1.03920538 16.98343458 -5.625 17.0625 C-9.6884319 15.78327144 -10.94170825 14.70492515 -13 11 C-13.65422668 7.07463991 -13.35343315 5.54843075 -11.1875 2.1875 C-7.54684223 -1.45315777 -4.77763646 -1.33773821 0 0 Z " fill="#0E1520" transform="translate(596,536)"/>
<path d="M0 0 C2.9375 2.125 2.9375 2.125 5 5 C5.06911913 8.93979054 4.60119832 11.12132553 2.375 14.375 C-0.8521925 16.58307908 -3.09842224 17 -7 17 C-9.80189446 15.23358828 -11.51524911 13.96950178 -13 11 C-13.42576871 7.16808162 -13.30321315 5.47050317 -11.1875 2.1875 C-7.54684223 -1.45315777 -4.77763646 -1.33773821 0 0 Z " fill="#0E151F" transform="translate(459,536)"/>
<path d="M0 0 C8.58 0 17.16 0 26 0 C24.35 1.65 22.7 3.3 21 5 C21 4.34 21 3.68 21 3 C14.07 2.67 7.14 2.34 0 2 C0 1.34 0 0.68 0 0 Z " fill="#0082DC" transform="translate(624,633)"/>
<path d="M0 0 C7.26 0 14.52 0 22 0 C21.67 1.98 21.34 3.96 21 6 C20.01 6.495 20.01 6.495 19 7 C19.33 5.35 19.66 3.7 20 2 C13.4 2 6.8 2 0 2 C0 1.34 0 0.68 0 0 Z " fill="#0082DF" transform="translate(759,633)"/>
<path d="M0 0 C7.59 0 15.18 0 23 0 C22.67 1.32 22.34 2.64 22 4 C22 3.34 22 2.68 22 2 C11.605 2.495 11.605 2.495 1 3 C0.67 2.01 0.34 1.02 0 0 Z " fill="#0083E0" transform="translate(692,633)"/>
<path d="M0 0 C1.18771723 3.42943519 0.80226223 5.37784675 -0.4375 8.75 C-0.72496094 9.54921875 -1.01242187 10.3484375 -1.30859375 11.171875 C-1.53675781 11.77515625 -1.76492188 12.3784375 -2 13 C-2.66 13 -3.32 13 -4 13 C-4.66 10.03 -5.32 7.06 -6 4 C-5.01 4.33 -4.02 4.66 -3 5 C-2.67 4.34 -2.34 3.68 -2 3 C-1.34 2.01 -0.68 1.02 0 0 Z " fill="#111017" transform="translate(740,680)"/>
<path d="M0 0 C4.29 0 8.58 0 13 0 C13 0.33 13 0.66 13 1 C11.02 1.33 9.04 1.66 7 2 C8.98 4.97 10.96 7.94 13 11 C12.67 11.66 12.34 12.32 12 13 C11.63648438 12.46890625 11.27296875 11.9378125 10.8984375 11.390625 C7.64961129 6.82560766 4.80488421 3.86005013 0 1 C0 0.67 0 0.34 0 0 Z " fill="#0F0B10" transform="translate(604,519)"/>
<path d="M0 0 C1.48980137 1.97905567 2.97221643 3.96181657 4.4296875 5.96484375 C7.37389356 9.98328716 10.37178795 13.58521219 14 17 C9.86081407 17 8.96912765 15.90007817 6 13 C0 4.35377358 0 4.35377358 0 0 Z " fill="#100F16" transform="translate(428,551)"/>
<path d="M0 0 C0.66 0 1.32 0 2 0 C1.67 1.98 1.34 3.96 1 6 C3.475 7.98 3.475 7.98 6 10 C5.67 10.66 5.34 11.32 5 12 C2.03 9.69 -0.94 7.38 -4 5 C-2.71937515 3.2925002 -1.38232443 1.62626404 0 0 Z " fill="#110E14" transform="translate(339,655)"/>
<path d="M0 0 C0.53625 0.268125 1.0725 0.53625 1.625 0.8125 C0.325625 1.6478125 0.325625 1.6478125 -1 2.5 C-4.33445073 4.71502798 -7.33705756 7.20854933 -10.375 9.8125 C-9.01008735 5.03530571 -5.57550568 -0.4401715 0 0 Z " fill="#100E16" transform="translate(500.375,654.1875)"/>
<path d="M0 0 C2.97 0.495 2.97 0.495 6 1 C5.67 2.32 5.34 3.64 5 5 C4.34 5 3.68 5 3 5 C3 5.66 3 6.32 3 7 C2.01 7.66 1.02 8.32 0 9 C-0.99 8.67 -1.98 8.34 -3 8 C1.75 4.125 1.75 4.125 4 3 C2.68 2.01 1.36 1.02 0 0 Z " fill="#0083E1" transform="translate(440,516)"/>
<path d="M0 0 C5.74418605 4.23255814 5.74418605 4.23255814 7 8 C7.125 10.75 7.125 10.75 7 13 C3.79864928 9.03642291 1.60997725 4.82993175 0 0 Z " fill="#110E15" transform="translate(424,659)"/>
<path d="M0 0 C4.51478398 0.53115106 7.34666857 2.36620292 11 5 C10.34 5.66 9.68 6.32 9 7 C8.2575 6.401875 7.515 5.80375 6.75 5.1875 C4.52582236 3.41826778 2.28337765 1.69139085 0 0 Z " fill="#110D12" transform="translate(516,653)"/>
</svg>
